<svg xmlns="http://www.w3.org/2000/svg" width="200" height="200" viewBox="0 0 200 200"><path d="M26.62 146.666C11.933 146.666 0 158.645 0 173.243c0 14.679 11.934 26.524 26.62 26.524 14.739 0 26.659-11.845 26.659-26.524 0-14.598-11.919-26.577-26.659-26.577zM.03 67.955v38.332c24.958 0 48.429 9.76 66.105 27.444 17.653 17.64 27.399 41.218 27.399 66.27h38.5c0-72.816-59.235-132.045-132.004-132.045zM.076 0v38.351c89.02 0 161.476 72.526 161.476 161.649H200C200 89.752 110.302 0 .076 0z" fill="#FFF"/></svg>