<svg xmlns="http://www.w3.org/2000/svg" width="200" height="200" viewBox="0 0 200 200"><path d="M109.193 12.5H56.86c-23.46 0-45.54 17.775-45.54 38.364 0 21.04 15.993 38.02 39.86 38.02 1.66 0 3.274-.032 4.853-.146-1.55 2.966-2.657 6.306-2.657 9.774 0 5.847 3.145 10.588 7.123 14.458-3.006 0-5.908.087-9.074.087-29.06 0-51.426 18.507-51.426 37.7 0 18.9 24.52 30.724 53.58 30.724 33.13 0 51.428-18.797 51.428-37.7 0-15.156-4.472-24.233-18.298-34.01-4.73-3.35-13.775-11.492-13.775-16.28 0-5.608 1.6-8.372 10.045-14.97 8.655-6.762 14.78-16.27 14.78-27.326 0-13.165-5.863-25.996-16.87-30.23h16.593l11.71-8.465zm-18.28 128.02c.416 1.75.642 3.555.642 5.395 0 15.273-9.842 27.21-38.08 27.21-20.087 0-34.594-12.717-34.594-27.99 0-14.968 17.994-27.43 38.08-27.212 4.688.05 9.056.804 13.02 2.088 10.905 7.584 18.727 11.87 20.933 20.51zm-32.16-56.97C45.27 83.147 32.46 68.467 30.132 50.765c-2.326-17.708 6.714-31.258 20.194-30.857 13.48.405 26.296 14.612 28.625 32.316 2.324 17.707-6.718 31.73-20.195 31.327zM162.5 50V12.5H150V50h-37.5v12.5H150V100h12.5V62.5H200V50z" fill="#FFF"/></svg>