<svg xmlns="http://www.w3.org/2000/svg" width="200" height="200" viewBox="0 0 200 200"><path d="M109.193 12.5H56.861C33.4 12.5 11.32 30.275 11.32 50.864c0 21.04 15.993 38.021 39.861 38.021 1.66 0 3.273-.033 4.852-.147-1.549 2.966-2.657 6.306-2.657 9.774 0 5.847 3.145 10.588 7.123 14.458-3.005 0-5.907.087-9.073.087C22.367 113.057 0 131.564 0 150.756c0 18.902 24.52 30.725 53.581 30.725 33.13 0 51.427-18.798 51.427-37.701 0-15.156-4.472-24.233-18.298-34.011-4.73-3.348-13.775-11.491-13.775-16.278 0-5.609 1.601-8.373 10.045-14.97 8.655-6.763 14.78-16.27 14.78-27.327 0-13.165-5.863-25.996-16.87-30.229h16.593l11.711-8.466zM90.914 140.519c.415 1.752.641 3.556.641 5.396 0 15.273-9.842 27.209-38.081 27.209-20.086 0-34.593-12.716-34.593-27.988 0-14.969 17.993-27.43 38.079-27.213 4.688.05 9.056.804 13.021 2.088 10.904 7.583 18.726 11.868 20.932 20.509zM58.754 83.55c-13.484-.403-26.296-15.083-28.623-32.785-2.327-17.708 6.713-31.258 20.193-30.857 13.479.405 26.296 14.612 28.625 32.316 2.325 17.707-6.717 31.73-20.194 31.327zM162.5 50V12.5H150V50h-37.5v12.5H150V100h12.5V62.5H200V50z" fill="#FFF"/></svg>