<svg xmlns="http://www.w3.org/2000/svg" width="216" height="129" viewBox="0, 0, 216, 129"><path fill="#FFF" d="M0 0h216v129H0z"/><path d="M3.802 25.022c0 3.373.574 15.214 14.21 15.214h6.457c3.157 0 3.803 1.076 3.803 3.157v1.15c0 2.15-1.148 2.94-4.234 2.94-6.675 0-15.717-.502-18.587-.79V57.53c7.176 2.44 8.754 2.44 22.174 2.44 7.104 0 14.568-2.727 14.568-16.074v-2.368c0-5.74-2.512-15.214-13.42-15.214H22.03c-3.876 0-4.306-1.22-4.306-3.445v-.79c0-3.014 1.435-3.157 5.31-3.157 4.737 0 12.63.215 17.223.717V8.804c-5.31-1.937-11.642-3.03-22.246-2.368-8.036.502-14.208 4.808-14.208 14.21zM47.074 59.396h13.922V40.164c.36.215 6.602 1.22 9.473 1.435 6.6.502 16.217-.862 16.217-17.726 0-15.213-8.898-17.007-16.218-17.007H47.073zM60.996 29.83V18.707h8.038c2.51 0 3.66 1.794 3.66 5.382 0 3.66-.933 5.74-3.66 5.74zM83.745 59.396h14.28l3.015-9.185h14.137l3.085 9.186h14.28l-15.93-52.53h-16.434zm20.452-21.026l4.378-14.065 3.803 14.065zM133.045 32.988c0 17.653 4.88 26.624 18.156 26.84 10.622.214 14.497-.432 18.946-2.298V46.694s-7.032.646-14.567.646c-7.25 0-8.613-2.44-8.613-14.21 0-14.638 2.512-14.35 8.54-14.35 7.39 0 14.568 1.22 14.64 1.22V9.162c-6.172-2.296-8.612-2.87-18.946-2.87-14.28 0-18.155 9.903-18.155 26.695zM174.38 47.843c0 10.98 9.423 11.912 14.066 11.77 0 0 15.357-.217 22.748-1.22V46.765H192.75c-2.08 0-4.448.072-4.448-3.73v-3.16l19.304-.645V27.678l-19.304-.79v-3.156c0-1.937 0-4.018 3.732-4.018h19.16V8.015c-8.396-1.148-23.466-1.148-23.466-1.148-5.074 0-13.348 1.38-13.348 12.2z" fill="#FD0000"/><path d="M4.418 122.318H18.41v-26.12l15.07 26.12h13.923v-52.53H33.48v26.84l-14.997-26.84H4.418zM55.57 110.764c0 10.98 9.423 11.913 14.066 11.77 0 0 15.357-.216 22.75-1.22v-11.626H73.94c-2.08 0-4.45.072-4.45-3.732V102.8l19.305-.647V90.6l-19.304-.79v-3.158c0-1.937 0-4.018 3.73-4.018h19.162V70.936c-8.396-1.148-23.466-1.148-23.466-1.148-5.075 0-13.35 1.38-13.35 12.2zM98.113 69.788l14.854 52.53h16.793l4.234-17.15 4.808 17.15h16.792l12.845-52.53H153.8l-6.53 35.45-7.32-24.542 2.655-10.908h-14.64l-6.53 35.45-8.683-35.45zM174.24 87.944c0 3.373.573 15.213 14.208 15.213h6.458c3.158 0 3.804 1.077 3.804 3.158v1.148c0 2.153-1.148 2.942-4.234 2.942-6.674 0-15.716-.502-18.586-.79v10.837c7.176 2.44 8.754 2.44 22.174 2.44 7.104 0 14.568-2.727 14.568-16.075v-2.368c0-5.742-2.512-15.214-13.42-15.214h-6.745c-3.876 0-4.306-1.22-4.306-3.445v-.788c0-3.014 1.436-3.158 5.31-3.158 4.738 0 12.63.215 17.224.718V71.726c-5.31-1.938-11.642-3.03-22.246-2.368-8.037.502-14.21 4.808-14.21 14.208z"/></svg>