<svg xmlns="http://www.w3.org/2000/svg" width="216" height="129" viewBox="0, 0, 216, 129"><path fill="none" d="M0 0h216v129H0z"/><path d="M3.802 25.022c0 3.373.574 15.214 14.209 15.214h6.458c3.158 0 3.804 1.076 3.804 3.157v1.149c0 2.152-1.148 2.942-4.234 2.942-6.674 0-15.716-.503-18.586-.79V57.53c7.176 2.44 8.754 2.44 22.174 2.44 7.104 0 14.568-2.727 14.568-16.074v-2.368c0-5.741-2.512-15.214-13.42-15.214H22.03c-3.876 0-4.306-1.22-4.306-3.445v-.789c0-3.014 1.435-3.157 5.31-3.157 4.737 0 12.63.215 17.223.717V8.804c-5.31-1.937-11.642-3.031-22.246-2.368-8.037.502-14.209 4.808-14.209 14.209zM47.074 59.396h13.922V40.164c.359.215 6.602 1.22 9.473 1.435 6.602.503 16.218-.861 16.218-17.725 0-15.213-8.898-17.007-16.218-17.007H47.074zM60.996 29.83V18.707h8.038c2.511 0 3.66 1.794 3.66 5.382 0 3.66-.933 5.741-3.66 5.741zM83.745 59.396h14.281l3.014-9.185h14.137l3.085 9.185h14.281L116.612 6.867h-16.434zm20.452-21.026l4.378-14.065 3.803 14.065zM133.045 32.988c0 17.653 4.88 26.624 18.156 26.839 10.621.215 14.496-.431 18.945-2.297V46.694s-7.032.646-14.567.646c-7.248 0-8.612-2.44-8.612-14.209 0-14.639 2.512-14.352 8.54-14.352 7.391 0 14.568 1.22 14.639 1.22V9.163c-6.171-2.296-8.611-2.871-18.945-2.871-14.28 0-18.156 9.904-18.156 26.696zM174.38 47.843c0 10.979 9.423 11.912 14.066 11.769 0 0 15.357-.216 22.748-1.22V46.766h-18.443c-2.081 0-4.449.072-4.449-3.731v-3.158l19.304-.646V27.677l-19.304-.789v-3.157c0-1.938 0-4.019 3.732-4.019h19.16V8.015c-8.396-1.148-23.466-1.148-23.466-1.148-5.074 0-13.348 1.379-13.348 12.199z" fill="#FD0000"/><path d="M4.418 122.318h13.993V96.197l15.07 26.121h13.922v-52.53H33.481v26.839L18.483 69.788H4.418zM55.571 110.764c0 10.98 9.422 11.913 14.065 11.769 0 0 15.357-.215 22.749-1.22v-11.625H73.942c-2.081 0-4.449.072-4.449-3.732v-3.157l19.304-.646V90.599l-19.304-.789v-3.158c0-1.937 0-4.018 3.731-4.018h19.161V70.936c-8.396-1.148-23.466-1.148-23.466-1.148-5.074 0-13.348 1.38-13.348 12.2zM98.113 69.788l14.854 52.53h16.793l4.234-17.151 4.808 17.151h16.792l12.845-52.53H153.8l-6.53 35.451-7.32-24.543 2.655-10.908h-14.639l-6.531 35.451-8.683-35.451zM174.239 87.944c0 3.373.574 15.213 14.209 15.213h6.458c3.158 0 3.804 1.077 3.804 3.158v1.148c0 2.153-1.148 2.942-4.234 2.942-6.674 0-15.716-.502-18.586-.789v10.836c7.176 2.44 8.754 2.44 22.174 2.44 7.104 0 14.568-2.727 14.568-16.075v-2.368c0-5.741-2.512-15.213-13.42-15.213h-6.745c-3.876 0-4.306-1.22-4.306-3.445v-.789c0-3.014 1.435-3.158 5.31-3.158 4.737 0 12.63.215 17.223.718V71.726c-5.31-1.938-11.642-3.031-22.246-2.368-8.037.502-14.209 4.808-14.209 14.208z" fill="#FFF"/></svg>