<svg xmlns="http://www.w3.org/2000/svg" width="200" height="200" viewBox="0 0 200 200"><path d="M200 37.972c-7.36 3.263-15.266 5.47-23.566 6.46 8.47-5.077 14.978-13.118 18.04-22.7-7.928 4.703-16.71 8.117-26.056 9.957-7.484-7.976-18.15-12.958-29.95-12.958-22.66 0-41.033 18.37-41.033 41.03 0 3.217.363 6.35 1.063 9.352-34.102-1.712-64.336-18.047-84.574-42.872-3.532 6.06-5.556 13.11-5.556 20.63 0 14.235 7.244 26.794 18.254 34.153-6.726-.213-13.053-2.06-18.585-5.132-.004.17-.004.343-.004.516 0 19.88 14.144 36.463 32.914 40.233-3.443.937-7.068 1.44-10.81 1.44-2.644 0-5.214-.258-7.72-.737 5.222 16.3 20.375 28.165 38.33 28.495-14.043 11.007-31.736 17.566-50.96 17.566-3.312 0-6.578-.194-9.788-.574 18.158 11.643 39.726 18.436 62.898 18.436 75.473 0 116.745-62.524 116.745-116.747 0-1.778-.04-3.547-.12-5.308C187.544 53.427 194.5 46.2 200 37.972z" fill="#FFF"/></svg>